<svg width="16" height="13" viewBox="0 0 16 13" fill="none" xmlns="http://www.w3.org/2000/svg">
<path d="M2.9672 7.27213L7.60227 11.6263C7.65412 11.675 7.68004 11.6993 7.70472 11.7174C7.88058 11.8462 8.11958 11.8462 8.29544 11.7174C8.32012 11.6993 8.34605 11.675 8.39789 11.6263L13.033 7.27213C14.3371 6.04705 14.4954 4.03106 13.3986 2.61737L13.1924 2.35155C11.8803 0.660376 9.2465 0.943999 8.32453 2.87576C8.19429 3.14863 7.80587 3.14863 7.67564 2.87576C6.75366 0.943999 4.1199 0.660376 2.80778 2.35155L2.60154 2.61737C1.50471 4.03106 1.66308 6.04705 2.9672 7.27213Z" stroke="#5F5F5F" stroke-width="2"/>
</svg>
